<!--?xml version="1.0" encoding="UTF-8" standalone="no"?-->
<!-- Created with Inkscape (http://www.inkscape.org/) -->

<svg xmlns:dc="http://purl.org/dc/elements/1.1/" xmlns:cc="http://creativecommons.org/ns#" xmlns:rdf="http://www.w3.org/1999/02/22-rdf-syntax-ns#" xmlns:svg="http://www.w3.org/2000/svg" xmlns="http://www.w3.org/2000/svg" xmlns:sodipodi="http://sodipodi.sourceforge.net/DTD/sodipodi-0.dtd" xmlns:inkscape="http://www.inkscape.org/namespaces/inkscape" width="137.98183mm" height="33.07365mm" viewBox="0 0 137.98183 33.073651" version="1.1" id="svg8" inkscape:version="0.92.2 5c3e80d, 2017-08-06" sodipodi:docname="drawing1.svg" style="">
  <defs id="defs2"></defs>
  <sodipodi:namedview id="base" pagecolor="#ffffff" bordercolor="#666666" borderopacity="1.0" inkscape:pageopacity="0.0" inkscape:pageshadow="2" inkscape:zoom="1.4" inkscape:cx="313.4165" inkscape:cy="74.919585" inkscape:document-units="mm" inkscape:current-layer="flowRoot815" showgrid="false" fit-margin-top="0" fit-margin-left="0" fit-margin-right="0" fit-margin-bottom="0" inkscape:window-width="1920" inkscape:window-height="1029" inkscape:window-x="0" inkscape:window-y="25" inkscape:window-maximized="1"></sodipodi:namedview>
  <metadata id="metadata5">
    <rdf:rdf>
      <cc:work rdf:about="">
        <dc:format>image/svg+xml</dc:format>
        <dc:type rdf:resource="http://purl.org/dc/dcmitype/StillImage"></dc:type>
        <dc:title></dc:title>
      </cc:work>
    </rdf:rdf>
  </metadata>
  <g inkscape:label="Layer 1" inkscape:groupmode="layer" id="layer1" transform="translate(-2.1037133,-1.4733899)">
    <g aria-label="TahyLabs" transform="matrix(0.85042732,0,0,0.85042732,1126.7872,-61.964834)" style="font-style:normal;font-weight:normal;font-size:40px;line-height:1.25;font-family:sans-serif;letter-spacing:0px;word-spacing:0px;fill:#d5e5ff;fill-opacity:1;stroke:#002255;stroke-opacity:1" id="flowRoot815">
      <path d="m -1317.9883,80.330078 12.4219,0.05859 v 26.093748 h 3.6914 V 80.583984 l 0.098,-0.253906 h 15.3906 l -3.3985,-4.003906 h -32.207 z" style="font-style:normal;font-variant:normal;font-weight:normal;font-stretch:normal;font-family:Ani;-inkscape-font-specification:Ani;fill:#d5e5ff;stroke:#002255;stroke-opacity:1" id="path893" class="thTqpSML_0"></path>
      <path d="m -1280.293,93.083984 -7.207,2.246094 -0.3125,5.117192 2.4023,5.29296 4.961,0.64454 5.1367,-4.33594 1.7578,3.3789 4.1602,0.46875 0.332,-1.75781 -3.0469,-0.46875 -4.8047,-7.871092 -1.7578,1.289063 2.2266,3.457029 -3.6719,2.94922 -2.7344,-0.15625 -2.0703,-3.359374 0.4688,-3.847657 4.4922,-1.601562 z" style="font-style:normal;font-variant:normal;font-weight:normal;font-stretch:normal;font-family:Ani;-inkscape-font-specification:Ani;fill:#d5e5ff;stroke:#002255;stroke-opacity:1" id="path895" class="thTqpSML_1"></path>
      <path d="m -1271.6406,79.099609 3.6523,0.05859 0.059,27.363277 2.8516,0.27344 v -9.707029 l 4.1601,0.449218 0.5078,9.023441 3.0469,-0.3711 0.098,-9.101559 -1.6602,-4.21875 -6.1719,-0.195313 0.1368,-13.535156 3.9648,0.351562 -2.7734,-4.199218 -10.4493,-0.195313 z" style="font-style:normal;font-variant:normal;font-weight:normal;font-stretch:normal;font-family:Ani;-inkscape-font-specification:Ani;fill:#d5e5ff;stroke:#002255;stroke-opacity:1" id="path897" class="thTqpSML_2"></path>
      <path d="m -1254.9414,95.857422 0.1172,-3.046875 7.539,9.980473 6.4063,-8.359379 -1.25,-1.484375 4.5312,-0.136719 -8.6523,11.601563 -1.25,1.42578 -5.4492,7.07031 -2.7539,0.0781 -0.2344,-2.8711 2.0703,1.66016 5.293,-7.28516 z" style="font-style:normal;font-variant:normal;font-weight:normal;font-stretch:normal;font-family:Ani;-inkscape-font-specification:Ani;fill:#d5e5ff;stroke:#002255;stroke-opacity:1" id="path899" class="thTqpSML_3"></path>
      <path d="m -1227.0508,79.314453 -0.039,23.359377 q 1.6015,0.68359 3.1054,0.64453 1.5235,-0.0391 3.5742,-0.0391 l 7.5586,0.0781 3.9258,3.125 -11.4844,-0.11719 -10.8007,0.0391 V 79.314453 h -3.9258 l -2.7149,-2.714844 h 15.2735 l 3.5742,2.714844 z" style="font-style:normal;font-variant:normal;font-weight:normal;font-stretch:normal;font-family:Ani;-inkscape-font-specification:Ani;fill:#d5e5ff;stroke:#002255;stroke-opacity:1" id="path901" class="thTqpSML_4"></path>
      <path d="m -1199.5117,93.083984 -7.2071,2.246094 -0.3125,5.117192 2.4024,5.29296 4.9609,0.64454 5.1367,-4.33594 1.7579,3.3789 4.1601,0.46875 0.332,-1.75781 -3.0468,-0.46875 -4.8047,-7.871092 -1.7578,1.289063 2.2265,3.457029 -3.6718,2.94922 -2.7344,-0.15625 -2.0703,-3.359374 0.4687,-3.847657 4.4922,-1.601562 z" style="font-style:normal;font-variant:normal;font-weight:normal;font-stretch:normal;font-family:Ani;-inkscape-font-specification:Ani;fill:#d5e5ff;stroke:#002255;stroke-opacity:1" id="path903" class="thTqpSML_5"></path>
      <path d="m -1180.1563,95.330078 2.3829,4.179688 -2.0899,3.281254 -5.0781,-0.29297 -0.293,-6.875003 z m -10.8789,-15.253906 3.8868,0.05859 0.078,25.625004 6.7969,0.44921 4.375,-2.20703 0.7421,-5.722653 -3.5937,-5.605469 -6.1328,0.195313 -0.078,-12.578125 5.2929,0.15625 -2.9687,-4.042969 -11.1719,-0.195313 z" style="font-style:normal;font-variant:normal;font-weight:normal;font-stretch:normal;font-family:Ani;-inkscape-font-specification:Ani;fill:#d5e5ff;stroke:#002255;stroke-opacity:1" id="path905" class="thTqpSML_6"></path>
      <path d="m -1161.7578,95.369141 -3.2227,-2.851563 -4.707,0.507813 -4.043,2.695312 v 2.011719 l 8.2813,1.347656 2.6953,1.035152 v 1.83594 l -3.0469,2.51953 -5.7422,-0.15625 -2.5195,-1.34765 -1.0156,1.34765 3.0468,1.85547 5.8985,0.50781 5.3906,-3.35937 -0.1953,-3.20313 -3.1641,-2.382808 -5.9179,-0.664063 -0.1758,-1.503906 3.5547,-1.191406 2.6953,1.679687 z" style="font-style:normal;font-variant:normal;font-weight:normal;font-stretch:normal;font-family:Ani;-inkscape-font-specification:Ani;fill:#d5e5ff;stroke:#002255;stroke-opacity:1" id="path907" class="thTqpSML_7"></path>
    </g>
  </g>
<style data-made-with="vivus-instant">.thTqpSML_0{stroke-dasharray:127 129;stroke-dashoffset:128;animation:thTqpSML_draw_0 4200ms linear 0ms infinite,thTqpSML_fade 4200ms linear 0ms infinite;}.thTqpSML_1{stroke-dasharray:81 83;stroke-dashoffset:82;animation:thTqpSML_draw_1 4200ms linear 0ms infinite,thTqpSML_fade 4200ms linear 0ms infinite;}.thTqpSML_2{stroke-dasharray:118 120;stroke-dashoffset:119;animation:thTqpSML_draw_2 4200ms linear 0ms infinite,thTqpSML_fade 4200ms linear 0ms infinite;}.thTqpSML_3{stroke-dasharray:86 88;stroke-dashoffset:87;animation:thTqpSML_draw_3 4200ms linear 0ms infinite,thTqpSML_fade 4200ms linear 0ms infinite;}.thTqpSML_4{stroke-dasharray:128 130;stroke-dashoffset:129;animation:thTqpSML_draw_4 4200ms linear 0ms infinite,thTqpSML_fade 4200ms linear 0ms infinite;}.thTqpSML_5{stroke-dasharray:81 83;stroke-dashoffset:82;animation:thTqpSML_draw_5 4200ms linear 0ms infinite,thTqpSML_fade 4200ms linear 0ms infinite;}.thTqpSML_6{stroke-dasharray:125 127;stroke-dashoffset:126;animation:thTqpSML_draw_6 4200ms linear 0ms infinite,thTqpSML_fade 4200ms linear 0ms infinite;}.thTqpSML_7{stroke-dasharray:83 85;stroke-dashoffset:84;animation:thTqpSML_draw_7 4200ms linear 0ms infinite,thTqpSML_fade 4200ms linear 0ms infinite;}@keyframes thTqpSML_draw{100%{stroke-dashoffset:0;}}@keyframes thTqpSML_fade{0%{stroke-opacity:1;}90.47619047619048%{stroke-opacity:1;}100%{stroke-opacity:0;}}@keyframes thTqpSML_draw_0{19.047619047619047%{stroke-dashoffset: 128}66.66666666666666%{ stroke-dashoffset: 0;}100%{ stroke-dashoffset: 0;}}@keyframes thTqpSML_draw_1{22.448979591836736%{stroke-dashoffset: 82}70.06802721088437%{ stroke-dashoffset: 0;}100%{ stroke-dashoffset: 0;}}@keyframes thTqpSML_draw_2{25.850340136054424%{stroke-dashoffset: 119}73.46938775510205%{ stroke-dashoffset: 0;}100%{ stroke-dashoffset: 0;}}@keyframes thTqpSML_draw_3{29.25170068027211%{stroke-dashoffset: 87}76.87074829931973%{ stroke-dashoffset: 0;}100%{ stroke-dashoffset: 0;}}@keyframes thTqpSML_draw_4{32.6530612244898%{stroke-dashoffset: 129}80.27210884353741%{ stroke-dashoffset: 0;}100%{ stroke-dashoffset: 0;}}@keyframes thTqpSML_draw_5{36.054421768707485%{stroke-dashoffset: 82}83.67346938775509%{ stroke-dashoffset: 0;}100%{ stroke-dashoffset: 0;}}@keyframes thTqpSML_draw_6{39.455782312925166%{stroke-dashoffset: 126}87.07482993197279%{ stroke-dashoffset: 0;}100%{ stroke-dashoffset: 0;}}@keyframes thTqpSML_draw_7{42.857142857142854%{stroke-dashoffset: 84}90.47619047619048%{ stroke-dashoffset: 0;}100%{ stroke-dashoffset: 0;}}</style></svg>
